<svg width="23" height="45" viewBox="0 0 23 45" fill="none" xmlns="http://www.w3.org/2000/svg">
<path d="M18.5744 19.6405L18.4264 19.3813C17.7869 18.2597 17.8448 16.8523 18.5741 15.7958C19.7938 14.0287 19.9999 13.5479 19.9999 13C19.9999 10.9539 18.7639 9.19187 16.9999 8.41869V0H5.99994V8.41878C4.2358 9.19186 2.99997 10.9539 2.99997 13.0001C2.99997 13.548 3.20607 14.0289 4.42591 15.7959C5.15531 16.8524 5.21323 18.2599 4.57365 19.3814L4.42573 19.6406C2.35125 23.2733 0 27.3908 0 34.5C0 38.6101 1.58142 42.1185 4.57339 44.6459L4.99262 45H18.0072L18.4264 44.6459C21.4187 42.1185 23 38.6101 23 34.5C22.9999 27.3909 20.6488 23.2733 18.5744 19.6405ZM9 2.99997H14V7.99998H9V2.99997ZM16.8896 42H6.11033C4.04595 40.0742 2.99997 37.5537 2.99997 34.5001C2.99997 28.1871 5.04905 24.5986 7.03081 21.1283L7.17943 20.8678C8.38678 18.7508 8.27516 16.0911 6.89484 14.0916C6.37585 13.3397 6.12984 12.9406 6.01655 12.7427C6.14338 11.761 6.98458 11.0001 8.00006 11.0001H15C16.0155 11.0001 16.8567 11.761 16.9835 12.7427C16.8702 12.9407 16.6242 13.3399 16.1052 14.0916C14.7249 16.0911 14.6132 18.7509 15.8207 20.8678L15.9693 21.1283C17.951 24.5986 20.0001 28.1872 20.0001 34.5001C19.9999 37.5537 18.954 40.0741 16.8896 42Z" fill="#CC8F4D"/>
<path d="M13.3641 22.6157L13.2146 22.354C12.3374 20.8159 11.5 19.5 11.5 19.5C11.5 19.5 10.3746 21.3209 9.78545 22.354L9.63603 22.6157C7.68504 26.0326 6 28.9833 6 34.5C6 36.2952 6.46547 37.7798 7.41697 39H15.583C16.5345 37.7798 16.9999 36.2952 16.9999 34.5C17 28.9834 15.315 26.0326 13.3641 22.6157ZM13.8068 36.0001H9.19307C9.06264 35.561 8.99988 35.0662 8.99988 34.5C8.99988 30.4259 10.0126 28.0943 11.4998 25.4135C12.987 28.0944 13.9998 30.4256 13.9998 34.5C14 35.0662 13.9371 35.561 13.8068 36.0001Z" fill="#CC8F4D"/>
</svg>
