<svg width="40" height="40" viewBox="0 0 40 40" fill="none" xmlns="http://www.w3.org/2000/svg">
<path d="M19.9996 32.9959C22.9819 32.9959 25.3996 30.5782 25.3996 27.5959C25.3996 24.6136 22.9819 22.1959 19.9996 22.1959C17.0173 22.1959 14.5996 24.6136 14.5996 27.5959C14.5996 30.5782 17.0173 32.9959 19.9996 32.9959Z" stroke="#D8BFAA" stroke-width="3"/>
<path d="M19.9992 33.4638L15.926 37.3688C15.3427 37.928 15.051 38.2076 14.8041 38.3044C14.2412 38.5249 13.6169 38.3361 13.3208 37.856C13.1909 37.6454 13.1504 37.2654 13.0694 36.5053C13.0237 36.0764 13.0008 35.8618 12.9314 35.682C12.7761 35.2797 12.4496 34.9667 12.03 34.8178C11.8426 34.7512 11.6188 34.7294 11.1712 34.6855C10.3784 34.6079 9.98205 34.569 9.76231 34.4445C9.26155 34.1606 9.06474 33.5621 9.29472 33.0225C9.39565 32.7858 9.6873 32.5061 10.2706 31.9468L12.9314 29.3959L14.8041 27.5233" stroke="#D8BFAA" stroke-width="3"/>
<path d="M20 33.4638L24.0732 37.3689C24.6564 37.9281 24.9482 38.2077 25.1952 38.3045C25.758 38.525 26.3823 38.3362 26.6784 37.8561C26.8083 37.6455 26.8488 37.2656 26.9298 36.5054C26.9755 36.0763 26.9984 35.8617 27.0677 35.6821C27.2232 35.2798 27.5496 34.9668 27.9691 34.8179C28.1567 34.7513 28.3804 34.7295 28.8281 34.6856C29.6208 34.608 30.0172 34.5692 30.237 34.4446C30.7377 34.1607 30.9345 33.5622 30.7044 33.0226C30.6036 32.7857 30.3118 32.5062 29.7286 31.9469L27.0677 29.396L25.4 27.7283" stroke="#D8BFAA" stroke-width="3"/>
<path d="M29.5755 31.1882C33.1258 31.1506 35.1047 30.9281 36.4183 29.6143C38 28.0326 38 25.4871 38 20.396V14.996M11 31.1929C7.08495 31.1711 4.96471 30.9974 3.58162 29.6143C2 28.0326 2 25.4871 2 20.396V13.196C2 8.10481 2 5.55924 3.58162 3.97762C5.16325 2.396 7.70883 2.396 12.8 2.396H27.2C32.2911 2.396 34.8367 2.396 36.4183 3.97762C37.3002 4.85942 37.6904 6.04083 37.863 7.79598" stroke="#D8BFAA" stroke-width="3" stroke-linecap="round"/>
<path d="M14.5996 9.59595H25.3996" stroke="#D8BFAA" stroke-width="3" stroke-linecap="round"/>
<path d="M11 15.896H14.6M29 15.896H20.9" stroke="#D8BFAA" stroke-width="3" stroke-linecap="round"/>
</svg>
