<svg width="60" height="60" viewBox="0 0 60 60" fill="none" xmlns="http://www.w3.org/2000/svg">
<g clip-path="url(#clip0_1055_258)">
<mask id="mask0_1055_258" style="mask-type:luminance" maskUnits="userSpaceOnUse" x="0" y="0" width="60" height="60">
<path d="M60 0H0V60H60V0Z" fill="white"/>
</mask>
<g mask="url(#mask0_1055_258)">
<path d="M20.125 32.2854L48.4094 7.53667C48.4094 7.53667 51.061 4.88502 53.7126 7.53667C56.3643 10.1883 53.7126 12.84 53.7126 12.84L28.9639 41.1243L20.125 32.2854Z" stroke="white" stroke-width="5" stroke-linejoin="round"/>
<path d="M6.86774 38.4725L20.1259 32.2854L28.9648 41.1243L22.7777 54.3825C22.7777 54.3825 16.5904 55.2664 11.2872 49.963C5.98387 44.6598 6.86774 38.4725 6.86774 38.4725Z" stroke="white" stroke-width="5" stroke-linejoin="round"/>
<path d="M8.63477 45.5438L14.822 42.8921" stroke="white" stroke-width="5" stroke-linecap="round" stroke-linejoin="round"/>
<path d="M15.707 52.6148L17.4748 49.0793" stroke="white" stroke-width="5" stroke-linecap="round" stroke-linejoin="round"/>
<path d="M23.6621 29.1919L27.1976 26.0983L30.7332 23.0046" stroke="white" stroke-width="5" stroke-linejoin="round"/>
<path d="M38.2458 30.5176L35.1522 34.0532L32.0586 37.5887" stroke="white" stroke-width="5" stroke-linejoin="round"/>
</g>
</g>
<defs>
<clipPath id="clip0_1055_258">
<rect width="60" height="60" fill="white"/>
</clipPath>
</defs>
</svg>
