<svg width="41" height="34" viewBox="0 0 41 34" fill="none" xmlns="http://www.w3.org/2000/svg">
<path d="M41 13.0066C41.0009 12.4923 40.8543 11.9869 40.5753 11.5418C40.2963 11.0967 39.8947 10.7279 39.4115 10.4728L22.1425 1.00061C21.6448 0.732236 21.0789 0.59082 20.5027 0.59082C19.9265 0.59082 19.3606 0.732236 18.8629 1.00061L1.56838 10.4728C1.09047 10.7349 0.694561 11.1074 0.419579 11.5538C0.144597 12.0001 0 12.5049 0 13.0185C0 13.5321 0.144597 14.0369 0.419579 14.4832C0.694561 14.9295 1.09047 15.302 1.56838 15.5641L6.48772 18.2164V24.8706C6.49068 25.3906 6.63837 25.9012 6.91657 26.3533C7.19477 26.8053 7.59414 27.1836 8.07626 27.4518L18.9654 33.2535C19.4516 33.5023 19.9982 33.6328 20.554 33.6328C21.1097 33.6328 21.6563 33.5023 22.1425 33.2535L33.0317 27.4518C33.5138 27.1836 33.9132 26.8053 34.1914 26.3533C34.4696 25.9012 34.6173 25.3906 34.6202 24.8706V18.1453L37.7973 16.4166V22.8577H41V13.0066ZM31.4431 24.8469L20.5027 30.6723L9.69042 24.8706V19.9687L18.8629 25.0127C19.3623 25.2764 19.9276 25.4151 20.5027 25.4151C21.0779 25.4151 21.6431 25.2764 22.1425 25.0127L31.4175 19.8977L31.4431 24.8469ZM20.5027 22.4552L3.20816 12.983L20.5027 3.48707L37.7973 12.9593L20.5027 22.4552Z" fill="#D8BFAA"/>
</svg>
