<svg width="37" height="48" viewBox="0 0 37 48" fill="none" xmlns="http://www.w3.org/2000/svg">
<path d="M32.5 21.9625H27.2242L26.4637 16.3744C26.1278 13.8906 23.8161 12.0193 21.0903 12.0193H15.7408C13.0152 12.0193 10.7033 13.8906 10.3653 16.3744L9.60485 21.9625H4.33336C1.9435 21.9625 0 23.7463 0 25.9398C0 28.1333 1.9435 29.9171 4.33336 29.9171H4.44599L6.50649 46.9299C6.56712 47.435 7.03085 47.8148 7.58335 47.8148H29.2499C29.8024 47.8148 30.2661 47.4349 30.3268 46.9299L32.3873 29.917H32.4999C34.8898 29.917 36.8333 28.1332 36.8333 25.9397C36.8333 23.7463 34.8898 21.9625 32.5 21.9625ZM12.5147 16.621C12.7183 15.1314 14.1051 14.0079 15.7408 14.0079H21.0903C22.7262 14.0079 24.1128 15.1314 24.3165 16.621L25.0445 21.9624H11.7867L12.5147 16.621ZM28.2793 45.8261H8.55409L6.62786 29.917H30.2077L28.2793 45.8261ZM32.5 27.9284H4.33336C3.13949 27.9284 2.16673 27.0355 2.16673 25.9398C2.16673 24.844 3.1396 23.9511 4.33336 23.9511H32.4999C33.6938 23.9511 34.6666 24.844 34.6666 25.9397C34.6667 27.0355 33.6938 27.9284 32.5 27.9284Z" fill="#D8BFAA"/>
<path d="M18.4166 10.0306C21.4022 10.0306 23.8332 7.79935 23.8332 5.05905C23.8332 2.31874 21.4022 0.0874023 18.4166 0.0874023C15.431 0.0874023 13 2.31865 13 5.05896C13 7.79926 15.431 10.0306 18.4166 10.0306ZM18.4166 2.076C20.2085 2.076 21.6666 3.41432 21.6666 5.05896C21.6666 6.70359 20.2085 8.04191 18.4166 8.04191C16.6248 8.04191 15.1666 6.70359 15.1666 5.05896C15.1666 3.41442 16.6248 2.076 18.4166 2.076Z" fill="#D8BFAA"/>
</svg>
