<svg width="51" height="58" viewBox="0 0 51 58" fill="none" xmlns="http://www.w3.org/2000/svg">
<path d="M34.7477 15.6719L32.4398 4.81382C32.0901 3.16888 30.4731 2.11863 28.828 2.46831L11.6124 6.12759C9.96748 6.47723 8.91724 8.09427 9.26691 9.73936L11.5749 20.5974C6.86533 22.6023 4.06697 27.7295 5.17025 32.92L8.16378 47.0035C9.41643 52.8967 15.2301 56.672 21.1232 55.4194L40.1884 51.3669C46.0817 50.1143 49.857 44.3006 48.6044 38.4075L45.6108 24.3241C44.5075 19.1336 39.8655 15.5879 34.7477 15.6719ZM15.8573 11.4517L27.1156 9.05872L28.7479 16.7379L17.4896 19.1309L15.8573 11.4517ZM38.9222 45.4098L19.8569 49.4622C17.2484 50.0167 14.6755 48.3455 14.1211 45.7373L11.1275 31.6538C10.5731 29.0456 12.2442 26.4723 14.8524 25.9179L15.7772 25.7213L32.9928 22.0621L33.9176 21.8655C36.526 21.311 39.099 22.9822 39.6534 25.5904L42.6469 39.6738C43.2014 42.2823 41.5306 44.8554 38.9222 45.4098Z" fill="white"/>
<path d="M24.9594 26.5987C19.9608 27.6612 16.7589 32.5921 17.8214 37.5905C18.8838 42.5891 23.8148 45.7912 28.8131 44.7288C33.8115 43.6663 37.0137 38.7353 35.9513 33.7369C34.8888 28.7385 29.9578 25.5363 24.9594 26.5987ZM27.5469 38.7718C25.8332 39.136 24.1428 38.0381 23.7785 36.3245C23.4143 34.6108 24.5121 32.9202 26.2257 32.556C27.9394 32.1917 29.6299 33.2896 29.9942 35.0033C30.3584 36.717 29.2606 38.4075 27.5469 38.7718Z" fill="white"/>
</svg>
