<svg width="42" height="43" viewBox="0 0 42 43" fill="none" xmlns="http://www.w3.org/2000/svg">
<path fill-rule="evenodd" clip-rule="evenodd" d="M12.3263 0.263868C8.90772 0.421785 5.94471 1.27748 3.55214 3.71668C1.15121 6.16869 0.325797 9.21427 0.171168 12.6778C0.0750464 14.8396 -0.48702 31.1714 1.14285 35.4544C2.24197 38.3438 4.40673 40.5655 7.25482 41.6944C8.5838 42.2237 10.1009 42.5819 12.3263 42.6865C30.934 43.5486 37.8317 43.0793 40.7404 35.4544C41.2565 34.0971 41.6117 32.5453 41.7099 30.2725C42.5604 11.1729 41.5721 7.03297 38.329 3.71668C35.7568 1.08968 32.731 -0.69858 12.3263 0.263868ZM12.4976 38.8452C10.4602 38.7513 9.35487 38.4038 8.61725 38.1114C6.7617 37.3731 5.36795 35.952 4.65123 34.0634C3.41002 30.809 3.82168 15.3521 3.93243 12.851C4.04109 10.4011 4.52586 8.16213 6.21424 6.43357C8.30382 4.29952 11.0035 3.25365 29.3856 4.103C31.7844 4.21397 33.9764 4.70927 35.669 6.43357C37.7586 8.5676 38.795 11.3529 37.9508 30.1004C37.8589 32.1811 37.5183 33.3101 37.232 34.0634C35.3409 39.025 30.9904 39.7138 12.4976 38.8452ZM29.5883 10.0827C29.5883 11.4954 30.7104 12.6442 32.0958 12.6442C33.4812 12.6442 34.6054 11.4954 34.6054 10.0827C34.6054 8.66997 33.4812 7.52222 32.0958 7.52222C30.7104 7.52222 29.5883 8.66997 29.5883 10.0827ZM10.2116 21.4741C10.2116 27.5262 15.0156 32.433 20.9416 32.433C26.8677 32.433 31.6716 27.5262 31.6716 21.4741C31.6716 15.422 26.8677 10.5184 20.9416 10.5184C15.0156 10.5184 10.2116 15.422 10.2116 21.4741ZM13.977 21.4741C13.977 17.5475 17.0947 14.3617 20.9416 14.3617C24.7885 14.3617 27.9062 17.5475 27.9062 21.4741C27.9062 25.4029 24.7885 28.5897 20.9416 28.5897C17.0947 28.5897 13.977 25.4029 13.977 21.4741Z" fill="#F8C38B"/>
</svg>
