<svg width="21" height="21" viewBox="0 0 21 21" fill="none" xmlns="http://www.w3.org/2000/svg">
<path d="M0.401133 18.6621C-0.133711 19.197 -0.133711 20.064 0.401133 20.5989C0.935977 21.1337 1.80315 21.1337 2.33799 20.5989L0.401133 18.6621ZM11.4684 11.4684C12.0033 10.9335 12.0033 10.0665 11.4684 9.53164C10.9335 8.99678 10.0665 8.99678 9.53164 9.53164L11.4684 11.4684ZM9.53164 9.53164C8.99678 10.0665 8.99678 10.9335 9.53164 11.4684C10.0665 12.0033 10.9335 12.0033 11.4684 11.4684L9.53164 9.53164ZM20.5989 2.338C21.1337 1.80315 21.1337 0.935977 20.5989 0.401133C20.064 -0.133711 19.197 -0.133711 18.6621 0.401133L20.5989 2.338ZM11.4684 9.53164C10.9335 8.99678 10.0665 8.99678 9.53164 9.53164C8.99678 10.0665 8.99678 10.9335 9.53164 11.4684L11.4684 9.53164ZM18.6621 20.5989C19.197 21.1337 20.064 21.1337 20.5989 20.5989C21.1337 20.064 21.1337 19.197 20.5989 18.6621L18.6621 20.5989ZM9.53164 11.4684C10.0665 12.0033 10.9335 12.0033 11.4684 11.4684C12.0033 10.9335 12.0033 10.0665 11.4684 9.53164L9.53164 11.4684ZM2.33799 0.401133C1.80315 -0.133711 0.935977 -0.133711 0.401133 0.401133C-0.133711 0.935977 -0.133711 1.80315 0.401133 2.338L2.33799 0.401133ZM2.33799 20.5989L11.4684 11.4684L9.53164 9.53164L0.401133 18.6621L2.33799 20.5989ZM11.4684 11.4684L20.5989 2.338L18.6621 0.401133L9.53164 9.53164L11.4684 11.4684ZM9.53164 11.4684L18.6621 20.5989L20.5989 18.6621L11.4684 9.53164L9.53164 11.4684ZM11.4684 9.53164L2.33799 0.401133L0.401133 2.338L9.53164 11.4684L11.4684 9.53164Z" fill="white"/>
</svg>
