<svg width="40" height="60" viewBox="0 0 40 60" fill="none" xmlns="http://www.w3.org/2000/svg">
<path d="M38.9447 13.1774C39.8072 10.6727 38.471 7.93311 35.9663 7.07067L17.0698 0.564101C14.5651 -0.298337 11.8256 1.03789 10.9632 3.54259C10.9335 3.6289 10.9088 3.71683 10.8892 3.80613L5.23585 29.5224C5.23566 29.523 5.23554 29.5237 5.23535 29.5242L2.68441 41.1286C2.20868 42.6733 2.55591 44.2907 3.48647 45.4903L1.00221 52.7052C0.574938 53.946 1.2346 55.2986 2.47549 55.7258L13.5064 59.5241C14.7472 59.9513 16.0997 59.2918 16.527 58.0508L19.0112 50.8363C20.4832 50.4639 21.7527 49.4034 22.3288 47.8927L38.8411 13.4308C38.8804 13.3483 38.915 13.2637 38.9447 13.1774ZM12.8066 54.2562L6.26967 52.0054L7.72576 47.7766L14.2627 50.0274L12.8066 54.2562ZM17.993 45.9418C17.9536 46.0241 17.9188 46.1086 17.8891 46.1949C17.8846 46.2081 17.8749 46.2181 17.8634 46.2238L7.2301 42.5624C7.22455 42.5509 7.22309 42.5371 7.22763 42.5239C7.25735 42.4376 7.28205 42.3497 7.30165 42.2604L9.59432 31.8315L28.1235 24.7986L17.993 45.9418ZM31.101 18.5848L10.8137 26.2853L15.4792 5.06262C15.4919 5.05508 15.5075 5.0529 15.5223 5.05801L34.4187 11.5645C34.4336 11.5697 34.4446 11.581 34.45 11.5948L31.101 18.5848Z" fill="white"/>
</svg>
