<svg width="45" height="54" viewBox="0 0 45 54" fill="none" xmlns="http://www.w3.org/2000/svg">
<path d="M30.7477 13.6719L28.4398 2.81382C28.0901 1.16888 26.4731 0.118632 24.828 0.468306L7.61243 4.12759C5.96748 4.47723 4.91724 6.09427 5.26691 7.73936L7.57486 18.5974C2.86533 20.6023 0.0669666 25.7295 1.17025 30.92L4.16378 45.0035C5.41643 50.8967 11.2301 54.672 17.1232 53.4194L36.1884 49.3669C42.0817 48.1143 45.857 42.3006 44.6044 36.4075L41.6108 22.3241C40.5075 17.1336 35.8655 13.5879 30.7477 13.6719ZM11.8573 9.45174L23.1156 7.05872L24.7479 14.7379L13.4896 17.1309L11.8573 9.45174ZM34.9222 43.4098L15.8569 47.4622C13.2484 48.0167 10.6755 46.3455 10.1211 43.7373L7.12753 29.6538C6.57314 27.0456 8.24423 24.4723 10.8524 23.9179L11.7772 23.7213L28.9928 20.0621L29.9176 19.8655C32.526 19.311 35.099 20.9822 35.6534 23.5904L38.6469 37.6738C39.2014 40.2823 37.5306 42.8554 34.9222 43.4098Z" fill="white"/>
</svg>
